<svg xmlns="http://www.w3.org/2000/svg" width="150" height="150" viewBox="0 0 150 150"><rect width="100%" height="100%" fill="#DDDDDD"/><path fill="#999999" d="M38.48 78.37h8.28l-3.17-8.66q-.23-.57-.48-1.36-.26-.8-.51-1.71-.23.91-.48 1.71-.26.81-.49 1.4zm6.61-16.2L55.31 88.2h-3.74q-.63 0-1.03-.32-.4-.31-.59-.78L48 81.79H37.22l-1.94 5.31q-.15.42-.56.76-.42.34-1.03.34h-3.78l10.24-26.03zm16.14 8.68.27 2.09q.87-1.66 2.05-2.61 1.19-.94 2.81-.94 1.28 0 2.05.56l-.28 3.33q-.09.32-.26.46-.18.13-.46.13-.27 0-.8-.09-.54-.09-1.04-.09-.74 0-1.31.22-.58.21-1.04.62-.46.4-.81.98t-.66 1.31V88.2h-4.44V69.73h2.61q.68 0 .95.24.27.25.36.88m15.66 17.64q-2.41 0-3.7-1.36-1.28-1.36-1.28-3.75V73.06h-1.89q-.36 0-.62-.23-.25-.24-.25-.7v-1.77l2.97-.48.94-5.04q.09-.36.34-.56t.65-.2h2.3v5.81h4.93v3.17h-4.93v10.01q0 .86.43 1.35.42.49 1.16.49.41 0 .69-.1t.49-.21q.2-.11.36-.21.17-.1.33-.1.2 0 .32.1.13.1.27.3l1.33 2.16q-.97.81-2.23 1.22-1.26.42-2.61.42m7.38-18.76h4.47V88.2h-4.47zm5.08-5.38q0 .58-.24 1.08-.23.5-.62.88-.38.38-.91.6-.52.23-1.11.23-.58 0-1.09-.23-.51-.22-.89-.6t-.6-.88q-.23-.5-.23-1.08 0-.59.23-1.12.22-.52.6-.9.38-.37.89-.6.51-.22 1.09-.22.59 0 1.11.22.53.23.91.6.39.38.62.9.24.53.24 1.12m16.2 7.38-1.01 1.6q-.18.29-.38.41-.2.11-.5.11-.33 0-.69-.18-.37-.18-.86-.4-.49-.23-1.11-.41t-1.46-.18q-1.32 0-2.06.56-.75.56-.75 1.46 0 .59.39 1 .38.4 1.02.71t1.45.55 1.65.53q.83.29 1.64.66t1.45.93q.64.57 1.03 1.36t.39 1.91q0 1.33-.48 2.46-.48 1.12-1.41 1.94-.94.82-2.32 1.28-1.37.46-3.17.46-.96 0-1.87-.17t-1.74-.48q-.84-.31-1.55-.72t-1.25-.9l1.02-1.69q.2-.31.47-.47t.69-.16q.41 0 .78.23.37.24.85.51.49.27 1.15.5.65.23 1.66.23.79 0 1.36-.19.57-.18.94-.49t.54-.71q.17-.41.17-.84 0-.65-.39-1.06t-1.02-.72q-.64-.31-1.46-.55t-1.68-.53q-.85-.29-1.67-.68-.82-.38-1.46-.98-.64-.59-1.02-1.45-.39-.87-.39-2.09 0-1.14.45-2.16.45-1.03 1.32-1.79.87-.77 2.18-1.23 1.3-.46 3.01-.46 1.91 0 3.48.63 1.56.63 2.61 1.66m9.7 16.76q-2.41 0-3.7-1.36t-1.29-3.75V73.06h-1.89q-.36 0-.61-.23-.25-.24-.25-.7v-1.77l2.97-.48.94-5.04q.09-.36.34-.56t.65-.2h2.3v5.81h4.93v3.17h-4.93v10.01q0 .86.42 1.35.43.49 1.16.49.42 0 .7-.1t.48-.21q.21-.11.37-.21t.33-.1q.19 0 .32.1t.27.3l1.33 2.16q-.97.81-2.23 1.22-1.26.42-2.61.42"/></svg>