<svg xmlns="http://www.w3.org/2000/svg" width="300" height="300" viewBox="0 0 300 300"><rect width="100%" height="100%" fill="#DDDDDD"/><path fill="#999999" d="M69.88 145.985h5.63q2.07 0 3.61-.52t2.56-1.48q1.02-.97 1.53-2.36.5-1.38.5-3.09 0-1.62-.5-2.94-.51-1.32-1.52-2.24-1-.92-2.54-1.41t-3.64-.49h-5.63zm-7.53-20.36h13.16q4.06 0 7.02.95 2.97.96 4.9 2.66 1.94 1.71 2.87 4.09.94 2.38.94 5.21 0 2.94-.98 5.39t-2.94 4.21q-1.96 1.77-4.91 2.75-2.96.98-6.9.98h-5.63v14.25h-7.53zm33.65-1.12h6.92v41.61H96zm29.01 34.19v-4.84q-3 .14-5.04.51-2.04.38-3.28.97-1.23.59-1.76 1.37-.53.79-.53 1.71 0 1.82 1.08 2.6 1.07.79 2.81.79 2.13 0 3.68-.77 1.56-.77 3.04-2.34m-14.62-15.09-1.23-2.21q4.96-4.54 11.93-4.54 2.52 0 4.51.83 1.99.82 3.36 2.29t2.08 3.52q.72 2.04.72 4.48v18.14h-3.14q-.98 0-1.51-.29-.53-.3-.84-1.19l-.62-2.08q-1.09.98-2.12 1.73-1.04.74-2.16 1.24-1.12.51-2.39.77-1.28.27-2.82.27-1.82 0-3.36-.49t-2.66-1.47-1.73-2.44q-.62-1.45-.62-3.39 0-1.09.36-2.17.37-1.07 1.19-2.05.83-.98 2.15-1.85 1.31-.87 3.23-1.51 1.92-.65 4.47-1.05 2.54-.41 5.82-.49v-1.68q0-2.89-1.23-4.27-1.23-1.39-3.56-1.39-1.68 0-2.78.39-1.11.39-1.95.88t-1.53.89q-.68.39-1.52.39-.73 0-1.23-.38-.51-.38-.82-.88m48.42-6.22h5.54l-15.65 36.63q-.31.72-.8 1.1t-1.5.38h-5.15l5.38-11.54-11.62-26.57h6.07q.81 0 1.28.39.46.4.68.9l6.11 14.9q.3.75.51 1.51.21.75.41 1.54.25-.79.5-1.56.26-.77.56-1.52l5.77-14.87q.23-.56.74-.92.52-.37 1.17-.37m9.07-12.88h6.91v41.61h-6.91zm14.05 12.88h6.95v28.73h-6.95zm7.9-8.37q0 .9-.36 1.68-.37.78-.97 1.37t-1.41.94q-.82.35-1.74.35-.9 0-1.69-.35-.8-.35-1.39-.94t-.94-1.37-.35-1.68q0-.92.35-1.74.35-.81.94-1.4.59-.58 1.39-.93.79-.35 1.69-.35.92 0 1.74.35.81.35 1.41.93.6.59.97 1.4.36.82.36 1.74m25.2 11.48-1.57 2.49q-.28.45-.59.63-.3.18-.78.18-.5 0-1.08-.28-.57-.28-1.33-.63-.75-.35-1.72-.63t-2.28-.28q-2.05 0-3.21.87t-1.16 2.27q0 .92.6 1.55t1.6 1.11q.99.48 2.25.85 1.26.38 2.56.83 1.31.45 2.57 1.02 1.26.58 2.25 1.46t1.6 2.11q.6 1.23.6 2.97 0 2.07-.74 3.82-.75 1.75-2.2 3.03-1.46 1.27-3.6 1.98-2.14.72-4.94.72-1.49 0-2.9-.27-1.41-.26-2.72-.74-1.3-.48-2.4-1.12-1.11-.64-1.95-1.4l1.6-2.63q.3-.48.72-.73t1.07-.25q.64 0 1.22.36.57.37 1.33.79.75.42 1.77.78 1.03.36 2.59.36 1.24 0 2.12-.29t1.45-.77q.58-.48.84-1.11.27-.63.27-1.3 0-1.01-.6-1.65t-1.6-1.12q-.99-.48-2.27-.85-1.27-.38-2.6-.83t-2.6-1.05q-1.28-.6-2.27-1.53-1-.92-1.6-2.26-.6-1.35-.6-3.25 0-1.77.7-3.36.7-1.6 2.06-2.79t3.39-1.9q2.03-.72 4.69-.72 2.96 0 5.4.98t4.06 2.58m15.09 26.07q-3.75 0-5.75-2.12-2-2.11-2-5.83v-16.05h-2.94q-.56 0-.96-.36-.39-.37-.39-1.09v-2.75l4.62-.75 1.46-7.84q.14-.56.53-.87t1.01-.31h3.58v9.04h7.67v4.93h-7.67v15.57q0 1.34.66 2.1t1.81.76q.64 0 1.07-.16.44-.15.76-.32t.57-.32q.26-.16.51-.16.31 0 .5.16.2.15.42.46l2.07 3.36q-1.51 1.26-3.47 1.9-1.96.65-4.06.65"/></svg>