<svg xmlns="http://www.w3.org/2000/svg" width="200" height="200" viewBox="0 0 200 200"><rect width="100%" height="100%" fill="#DDDDDD"/><path fill="#999999" d="m66.365 79.115-1.84 3.49q-.33.57-.7.84-.37.26-.92.26-.58 0-1.25-.43-.68-.43-1.61-.95-.94-.52-2.19-.95-1.25-.42-2.95-.42-1.54 0-2.7.37-1.15.37-1.94 1.03-.78.66-1.17 1.58-.38.92-.38 2.02 0 1.41.78 2.34.79.93 2.08 1.59t2.94 1.19q1.65.52 3.38 1.11 1.74.59 3.39 1.38 1.65.78 2.94 1.98 1.29 1.19 2.07 2.93.79 1.73.79 4.2 0 2.7-.92 5.05t-2.7 4.1q-1.77 1.74-4.33 2.75-2.56 1-5.86 1-1.89 0-3.74-.37-1.84-.37-3.53-1.06t-3.18-1.65q-1.48-.96-2.64-2.15l2.18-3.54q.27-.39.71-.65t.94-.26q.68 0 1.48.56.8.57 1.9 1.26 1.1.68 2.57 1.25 1.47.56 3.53.56 3.17 0 4.9-1.5t1.73-4.3q0-1.57-.78-2.56-.79-.99-2.08-1.66-1.29-.68-2.94-1.14-1.65-.47-3.36-1.02-1.7-.55-3.35-1.32t-2.94-2.01q-1.3-1.24-2.08-3.09-.78-1.86-.78-4.58 0-2.17.86-4.24.87-2.06 2.52-3.66 1.65-1.59 4.07-2.55t5.55-.96q3.52 0 6.49 1.1 2.97 1.09 5.06 3.08m18.57 7.36q3.13 0 5.7 1.02t4.4 2.89 2.82 4.57q.99 2.69.99 6.02 0 3.35-.99 6.05-.99 2.69-2.82 4.59t-4.4 2.92q-2.57 1.01-5.7 1.01-3.17 0-5.75-1.01-2.59-1.02-4.42-2.92-1.82-1.9-2.83-4.59-1-2.7-1-6.05 0-3.33 1-6.02 1.01-2.7 2.83-4.57 1.83-1.87 4.42-2.89 2.58-1.02 5.75-1.02m0 23.85q3.52 0 5.21-2.37 1.69-2.36 1.69-6.93 0-4.56-1.69-6.96-1.69-2.39-5.21-2.39-3.58 0-5.3 2.41t-1.72 6.94q0 4.54 1.72 6.92t5.3 2.38m24.99-22.17.47 2.23q.85-.85 1.8-1.58t2.01-1.24 2.27-.8 2.64-.29q2.31 0 4.1.79 1.78.78 2.98 2.2t1.81 3.38q.62 1.97.62 4.33v17.96h-6.79v-17.96q0-2.58-1.18-4t-3.6-1.42q-1.76 0-3.3.8t-2.92 2.17v20.41h-6.79v-28.21h4.15q1.32 0 1.73 1.23m35.45 12.19q1.27 0 2.2-.35.94-.34 1.55-.95.62-.6.94-1.46.32-.85.32-1.86 0-2.09-1.26-3.32-1.25-1.22-3.75-1.22t-3.75 1.22q-1.25 1.23-1.25 3.32 0 .98.31 1.84.32.85.94 1.47t1.56.96q.95.35 2.19.35m7.67 16.05q0-.82-.49-1.34-.5-.52-1.35-.81t-1.99-.43-2.42-.21q-1.28-.06-2.64-.12t-2.66-.22q-1.12.63-1.83 1.48-.7.86-.7 1.98 0 .75.37 1.39.38.65 1.19 1.12t2.1.73 3.16.26q1.9 0 3.28-.29 1.37-.29 2.26-.8.9-.51 1.31-1.21t.41-1.53m-1.34-28.51h8.11v2.53q0 1.21-1.46 1.48l-2.53.47q.58 1.46.58 3.19 0 2.09-.84 3.78t-2.32 2.87q-1.49 1.19-3.51 1.83-2.02.65-4.36.65-.82 0-1.59-.08-.77-.09-1.52-.22-1.32.79-1.32 1.79 0 .85.79 1.25.78.39 2.07.56 1.3.16 2.95.21 1.65.04 3.38.18 1.73.13 3.38.48 1.65.34 2.94 1.08 1.3.74 2.08 2.02t.78 3.29q0 1.87-.92 3.63t-2.67 3.14q-1.74 1.37-4.29 2.21-2.54.84-5.78.84-3.19 0-5.56-.62-2.36-.62-3.93-1.65t-2.34-2.38-.77-2.8q0-1.99 1.2-3.32 1.19-1.33 3.28-2.13-1.12-.58-1.78-1.54t-.66-2.53q0-.63.23-1.31.23-.67.69-1.33.45-.66 1.14-1.25t1.62-1.06q-2.14-1.15-3.37-3.08-1.22-1.93-1.22-4.51 0-2.09.84-3.78t2.33-2.89q1.5-1.2 3.55-1.83t4.47-.63q1.82 0 3.41.37 1.6.37 2.92 1.09"/></svg>