<svg xmlns="http://www.w3.org/2000/svg" width="160" height="160" viewBox="0 0 160 160"><rect width="100%" height="100%" fill="#01161e"/><path fill="#FFFFFF" d="M44.87 89.83V86.2q-2.25.11-3.78.39-1.54.28-2.46.72-.92.45-1.32 1.03-.4.59-.4 1.28 0 1.37.81 1.96.8.59 2.11.59 1.59 0 2.76-.58 1.16-.58 2.28-1.76M33.9 78.52l-.92-1.66q3.72-3.41 8.95-3.41 1.89 0 3.38.62t2.52 1.73q1.03 1.1 1.56 2.63.54 1.53.54 3.36V95.4h-2.35q-.74 0-1.14-.22t-.63-.89l-.46-1.56q-.82.74-1.6 1.29-.77.56-1.61.94t-1.8.58q-.95.2-2.11.2-1.36 0-2.52-.37-1.15-.37-1.99-1.1-.84-.74-1.31-1.83-.46-1.09-.46-2.54 0-.82.27-1.63.28-.81.9-1.54.62-.74 1.6-1.39.99-.65 2.43-1.13 1.44-.49 3.35-.79 1.91-.31 4.37-.37v-1.26q0-2.16-.93-3.2-.92-1.04-2.66-1.04-1.26 0-2.09.29-.83.3-1.46.67-.63.36-1.15.66-.51.29-1.14.29-.55 0-.93-.28-.37-.29-.61-.66m25.48-3.36.31 2.43q1.01-1.93 2.4-3.03 1.38-1.11 3.27-1.11 1.49 0 2.4.66l-.34 3.88q-.1.38-.3.54-.2.15-.54.15-.31 0-.93-.1-.62-.11-1.21-.11-.86 0-1.53.26-.68.25-1.21.72-.54.47-.95 1.14-.41.68-.76 1.54V95.4H54.8V73.85h3.04q.8 0 1.12.29.31.28.42 1.02m18.27 20.58q-2.82 0-4.32-1.59-1.5-1.58-1.5-4.38V77.74h-2.2q-.42 0-.72-.27-.29-.28-.29-.82v-2.06l3.46-.57 1.09-5.88q.11-.42.4-.65.3-.23.76-.23h2.69v6.78h5.75v3.7h-5.75v11.67q0 1.01.49 1.58t1.36.57q.48 0 .8-.12.33-.11.57-.24t.43-.24q.19-.12.38-.12.23 0 .38.12.14.11.31.34l1.56 2.52q-1.14.95-2.61 1.43-1.47.49-3.04.49m8.61-21.89h5.21V95.4h-5.21zm5.92-6.28q0 .68-.27 1.26-.28.59-.73 1.03t-1.06.71q-.61.26-1.3.26-.67 0-1.27-.26-.6-.27-1.04-.71t-.7-1.03q-.27-.58-.27-1.26 0-.69.27-1.3.26-.61.7-1.05t1.04-.7 1.27-.26q.69 0 1.3.26t1.06.7.73 1.05q.27.61.27 1.3m18.9 8.62-1.18 1.86q-.21.34-.44.48-.23.13-.59.13-.37 0-.8-.21t-1-.47-1.29-.47q-.73-.21-1.71-.21-1.54 0-2.41.65t-.87 1.7q0 .69.45 1.17.45.47 1.2.82.74.36 1.69.65.94.28 1.92.61.98.34 1.92.77.95.43 1.69 1.09.75.66 1.2 1.59.45.92.45 2.22 0 1.56-.56 2.87-.55 1.31-1.64 2.27-1.1.95-2.7 1.49-1.61.54-3.71.54-1.11 0-2.17-.2t-2.04-.56-1.81-.84-1.46-1.05l1.2-1.97q.23-.36.55-.55.31-.19.8-.19.48 0 .91.27.43.28 1 .59.56.32 1.33.59t1.94.27q.93 0 1.59-.22t1.09-.58q.43-.35.63-.82.2-.48.2-.98 0-.76-.45-1.24t-1.2-.84q-.74-.36-1.7-.64t-1.95-.62q-1-.34-1.96-.79-.95-.45-1.7-1.14-.74-.7-1.19-1.7-.46-1.01-.46-2.44 0-1.32.53-2.52.52-1.2 1.54-2.09t2.54-1.43q1.53-.53 3.52-.53 2.23 0 4.05.73 1.83.74 3.05 1.94m11.32 19.55q-2.82 0-4.32-1.59-1.5-1.58-1.5-4.38V77.74h-2.2q-.42 0-.72-.27-.29-.28-.29-.82v-2.06l3.46-.57 1.1-5.88q.1-.42.39-.65.3-.23.76-.23h2.69v6.78h5.75v3.7h-5.75v11.67q0 1.01.49 1.58.5.57 1.36.57.48 0 .8-.12.33-.11.57-.24t.43-.24q.19-.12.38-.12.23 0 .38.12.15.11.31.34l1.56 2.52q-1.14.95-2.61 1.43-1.47.49-3.04.49"/></svg>