<svg xmlns="http://www.w3.org/2000/svg" width="150" height="150" viewBox="0 0 150 150"><rect width="100%" height="100%" fill="#01161e"/><path fill="#FFFFFF" d="M38.475 71.475q.83 0 1.44-.23.61-.22 1.02-.62.4-.4.61-.95.21-.56.21-1.23 0-1.37-.82-2.17t-2.46-.8-2.46.8q-.81.8-.81 2.17 0 .65.2 1.21.21.56.61.96.41.41 1.03.63.62.23 1.43.23m5.02 10.51q0-.54-.32-.88-.32-.35-.88-.54-.56-.18-1.31-.27-.74-.09-1.58-.14-.84-.04-1.73-.08t-1.74-.14q-.73.41-1.19.97t-.46 1.29q0 .49.24.91.24.43.77.73.54.31 1.38.48.85.17 2.07.17 1.24 0 2.14-.19t1.49-.52q.58-.33.85-.79t.27-1m-.88-18.67h5.31v1.66q0 .79-.95.97l-1.66.31q.38.95.38 2.08 0 1.37-.55 2.48t-1.52 1.88-2.3 1.2q-1.32.42-2.85.42-.54 0-1.04-.05-.51-.06-.99-.15-.87.52-.87 1.17 0 .56.52.82.51.26 1.36.37.84.11 1.92.13 1.08.03 2.22.12 1.13.09 2.21.32 1.08.22 1.93.71.84.48 1.35 1.32.52.84.52 2.15 0 1.23-.61 2.38-.6 1.15-1.74 2.05t-2.81 1.45q-1.66.55-3.79.55-2.09 0-3.63-.41-1.55-.4-2.58-1.08-1.02-.67-1.53-1.55-.5-.89-.5-1.84 0-1.3.78-2.17t2.15-1.39q-.74-.38-1.17-1.01t-.43-1.66q0-.41.15-.85.16-.44.45-.88.3-.43.75-.82.45-.38 1.06-.69-1.4-.75-2.2-2.01t-.8-2.96q0-1.36.54-2.47.55-1.11 1.53-1.89.99-.78 2.33-1.2 1.34-.41 2.92-.41 1.19 0 2.23.24 1.05.24 1.91.71m11.63 6.48h8.39q0-.86-.25-1.63-.24-.76-.72-1.34-.49-.57-1.24-.91-.74-.33-1.73-.33-1.93 0-3.04 1.1-1.1 1.1-1.41 3.11m11.34 2.68h-11.43q.11 1.43.5 2.46.4 1.04 1.05 1.71.65.68 1.54 1.01t1.97.33 1.86-.25 1.37-.56q.58-.3 1.02-.56.45-.25.86-.25.56 0 .83.42l1.28 1.62q-.74.86-1.66 1.44-.92.59-1.92.94t-2.03.5q-1.04.14-2.01.14-1.92 0-3.58-.64t-2.88-1.89-1.93-3.1q-.7-1.84-.7-4.27 0-1.89.61-3.56.62-1.66 1.76-2.89 1.14-1.24 2.79-1.96t3.72-.72q1.74 0 3.22.56 1.47.56 2.54 1.63 1.06 1.07 1.66 2.63t.6 3.55q0 1.01-.21 1.36-.22.35-.83.35m8.23-8.98.3 1.46q.56-.56 1.18-1.04.62-.47 1.31-.81.7-.33 1.49-.52t1.73-.19q1.51 0 2.68.52 1.17.51 1.95 1.44.79.92 1.19 2.21.41 1.29.41 2.84v11.75h-4.45v-11.75q0-1.7-.77-2.62-.78-.93-2.36-.93-1.15 0-2.16.52t-1.91 1.42v13.36h-4.45v-18.47h2.72q.87 0 1.14.81m20.37.31.27 2.09q.87-1.66 2.05-2.61 1.19-.94 2.81-.94 1.28 0 2.05.56l-.28 3.33q-.09.32-.26.46-.18.13-.46.13-.27 0-.8-.09-.54-.09-1.04-.09-.74 0-1.31.22-.58.21-1.04.62-.46.4-.81.98t-.66 1.31v11.38h-4.44v-18.47h2.61q.68 0 .95.24.27.25.36.88m13.02 5.99h8.38q0-.86-.24-1.63-.24-.76-.73-1.34-.48-.57-1.23-.91-.75-.33-1.74-.33-1.92 0-3.03 1.1t-1.41 3.11m11.34 2.68h-11.43q.1 1.43.5 2.46.4 1.04 1.04 1.71.65.68 1.54 1.01t1.97.33 1.87-.25q.78-.25 1.37-.56.58-.3 1.02-.56.44-.25.86-.25.55 0 .82.42l1.28 1.62q-.74.86-1.65 1.44-.92.59-1.92.94t-2.03.5q-1.04.14-2.01.14-1.93 0-3.58-.64-1.66-.64-2.88-1.89-1.23-1.25-1.93-3.1-.7-1.84-.7-4.27 0-1.89.61-3.56.61-1.66 1.76-2.89 1.14-1.24 2.79-1.96 1.64-.72 3.71-.72 1.75 0 3.22.56 1.48.56 2.54 1.63t1.67 2.63q.6 1.56.6 3.55 0 1.01-.22 1.36-.21.35-.82.35"/></svg>