<svg xmlns="http://www.w3.org/2000/svg" width="160" height="160" viewBox="0 0 160 160"><rect width="100%" height="100%" fill="#01161e"/><path fill="#FFFFFF" d="M35.79 77.67v7.13q.66.79 1.42 1.11.77.33 1.67.33.87 0 1.56-.33.7-.32 1.19-.99t.75-1.68q.27-1.02.27-2.4 0-1.39-.23-2.36-.22-.97-.64-1.57-.42-.61-1.02-.89-.59-.28-1.35-.28-1.2 0-2.03.51-.84.5-1.59 1.42m-.51-3.96.31 1.48q.98-1.1 2.22-1.79 1.24-.68 2.91-.68 1.31 0 2.38.55 1.08.54 1.86 1.57.79 1.03 1.21 2.54.43 1.51.43 3.46 0 1.79-.48 3.31t-1.37 2.63q-.9 1.12-2.16 1.74-1.26.63-2.83.63-1.33 0-2.28-.41-.94-.41-1.69-1.14v6.51h-3.82V73.02h2.34q.74 0 .97.69m14.34-7.82h3.83v23.03h-3.83zm16.06 18.92v-2.68q-1.66.08-2.79.29t-1.82.53q-.68.33-.97.76-.3.44-.3.95 0 1.01.6 1.44t1.56.43q1.18 0 2.04-.42.86-.43 1.68-1.3m-8.09-8.35-.68-1.23q2.74-2.51 6.6-2.51 1.39 0 2.49.46t1.86 1.27 1.16 1.95q.39 1.13.39 2.48v10.04h-1.73q-.54 0-.84-.16-.29-.17-.46-.66l-.35-1.15q-.6.54-1.17.95-.58.42-1.2.69-.62.28-1.32.43-.71.15-1.56.15-1.01 0-1.86-.27t-1.47-.82q-.62-.54-.96-1.35-.34-.8-.34-1.87 0-.61.2-1.2.2-.6.66-1.14.45-.54 1.18-1.02.73-.49 1.79-.84 1.06-.36 2.47-.58 1.41-.23 3.23-.27v-.93q0-1.6-.68-2.37-.69-.77-1.97-.77-.93 0-1.54.22-.62.22-1.08.49l-.85.49q-.38.22-.84.22-.4 0-.68-.21t-.45-.49m26.8-3.44h3.07l-8.67 20.27q-.17.4-.44.61t-.83.21h-2.85l2.97-6.38-6.43-14.71h3.37q.44 0 .7.21.26.22.38.5l3.38 8.25q.17.41.29.83.11.42.22.86.14-.44.28-.86.14-.43.31-.85l3.19-8.23q.13-.31.41-.51.29-.2.65-.2m5.02-7.13h3.83v23.03h-3.83zm7.78 7.13h3.84v15.9h-3.84zm4.37-4.64q0 .5-.2.93-.2.44-.54.76-.33.33-.78.52t-.96.19q-.5 0-.94-.19t-.76-.52q-.33-.32-.52-.76-.2-.43-.2-.93 0-.51.2-.96.19-.45.52-.77.32-.33.76-.52.44-.2.94-.2.51 0 .96.2.45.19.78.52.34.32.54.77t.2.96m13.95 6.36-.87 1.38q-.15.25-.32.35t-.44.1q-.28 0-.59-.16-.32-.15-.74-.35-.42-.19-.95-.35-.54-.15-1.27-.15-1.13 0-1.77.48t-.64 1.25q0 .52.33.87.33.34.88.61.55.26 1.25.47t1.42.46 1.42.56q.69.32 1.24.81t.89 1.17q.33.68.33 1.64 0 1.15-.41 2.12t-1.22 1.67q-.8.71-1.99 1.1-1.18.4-2.73.4-.83 0-1.61-.15t-1.5-.41-1.33-.62q-.62-.36-1.08-.78l.88-1.45q.17-.27.4-.4.24-.14.59-.14.36 0 .68.2t.73.43q.42.23.99.44.56.2 1.43.2.68 0 1.17-.17.49-.16.81-.42.32-.27.46-.61.15-.35.15-.73 0-.55-.33-.91-.34-.36-.89-.62t-1.25-.47q-.71-.21-1.44-.46-.74-.25-1.44-.58-.71-.33-1.26-.85-.55-.51-.88-1.25-.34-.75-.34-1.8 0-.98.39-1.86t1.14-1.54 1.88-1.06q1.12-.39 2.59-.39 1.64 0 2.99.54t2.25 1.43m8.36 14.43q-2.08 0-3.19-1.17t-1.11-3.23v-8.89h-1.63q-.31 0-.52-.2-.22-.2-.22-.6v-1.52l2.56-.42.8-4.34q.08-.31.3-.48t.56-.17h1.98v5.01h4.25v2.72h-4.25v8.62q0 .75.36 1.17.37.41 1 .41.36 0 .6-.08.24-.09.42-.18t.32-.18q.14-.08.28-.08.17 0 .28.08.1.09.23.26l1.14 1.86q-.83.7-1.92 1.05-1.08.36-2.24.36"/></svg>