<svg xmlns="http://www.w3.org/2000/svg" width="160" height="160" viewBox="0 0 160 160"><rect width="100%" height="100%" fill="#01161e"/><path fill="#FFFFFF" d="m49.875 66.815-1.28 2.04q-.23.37-.49.52-.25.15-.64.15-.41 0-.89-.23-.47-.23-1.09-.52t-1.41-.52q-.8-.23-1.88-.23-1.68 0-2.63.72-.96.71-.96 1.86 0 .76.5 1.28.49.51 1.31.91.82.39 1.85.7 1.04.31 2.11.67 1.07.37 2.1.84 1.04.48 1.85 1.2.82.73 1.31 1.74.5 1.01.5 2.44 0 1.7-.61 3.13-.61 1.44-1.81 2.49-1.19 1.05-2.95 1.63-1.76.59-4.06.59-1.22 0-2.38-.22t-2.23-.61-1.98-.92-1.6-1.15l1.31-2.16q.25-.39.6-.6.34-.21.87-.21t1 .3 1.1.65q.62.34 1.46.64t2.12.3q1.02 0 1.74-.24t1.2-.64q.47-.39.69-.9.21-.52.21-1.07 0-.83-.49-1.36t-1.31-.92-1.86-.7q-1.05-.31-2.14-.68-1.1-.37-2.14-.86-1.05-.5-1.87-1.26-.81-.75-1.31-1.86-.49-1.1-.49-2.67 0-1.45.57-2.76.58-1.31 1.69-2.29 1.12-.97 2.79-1.56t3.85-.59q2.44 0 4.44.81 2 .8 3.33 2.12m14.98-2.93q2.62 0 4.77.86 2.15.85 3.68 2.41t2.36 3.82q.83 2.25.83 5.03 0 2.81-.83 5.06-.83 2.26-2.36 3.85-1.53 1.58-3.68 2.43t-4.77.85q-2.65 0-4.81-.85t-3.69-2.43q-1.53-1.59-2.37-3.85-.84-2.25-.84-5.06 0-2.78.84-5.03.84-2.26 2.37-3.82t3.69-2.41q2.16-.86 4.81-.86m0 19.94q2.94 0 4.36-1.97 1.41-1.98 1.41-5.8t-1.41-5.82q-1.42-2-4.36-2-2.99 0-4.43 2.01-1.44 2.02-1.44 5.81 0 3.8 1.44 5.79 1.44 1.98 4.43 1.98m20.9-18.53.4 1.86q.71-.71 1.5-1.32.8-.61 1.68-1.04.89-.42 1.9-.66 1.01-.25 2.21-.25 1.93 0 3.42.66 1.5.65 2.5 1.84 1 1.18 1.52 2.83.51 1.64.51 3.62v15.02h-5.68v-15.02q0-2.16-.99-3.35-.98-1.18-3.01-1.18-1.47 0-2.76.67-1.29.66-2.44 1.81v17.07h-5.68v-23.6h3.48q1.1 0 1.44 1.04m29.65 10.19q1.06 0 1.84-.29t1.3-.8q.52-.5.78-1.21.27-.72.27-1.57 0-1.75-1.05-2.77t-3.14-1.02-3.14 1.02q-1.04 1.02-1.04 2.77 0 .83.26 1.54.26.72.78 1.23.52.52 1.31.81.8.29 1.83.29m6.42 13.43q0-.69-.42-1.13-.41-.44-1.12-.68-.72-.24-1.67-.35-.95-.12-2.02-.18-1.07-.05-2.21-.1t-2.22-.18q-.94.53-1.53 1.24t-.59 1.65q0 .63.31 1.17t.99.93 1.76.61q1.08.21 2.65.21 1.58 0 2.73-.24t1.9-.66q.75-.43 1.09-1.02.35-.58.35-1.27m-1.13-23.85h6.79v2.11q0 1.02-1.22 1.25l-2.12.39q.48 1.22.48 2.66 0 1.75-.7 3.17-.7 1.41-1.94 2.4t-2.93 1.53-3.65.54q-.69 0-1.33-.07-.65-.07-1.27-.18-1.1.66-1.1 1.49 0 .71.65 1.05.66.33 1.74.47t2.46.17q1.38.04 2.83.15 1.45.12 2.83.4 1.38.29 2.46.91t1.74 1.69q.65 1.07.65 2.75 0 1.57-.77 3.04t-2.23 2.62-3.59 1.85q-2.12.7-4.84.7-2.67 0-4.64-.51-1.98-.52-3.29-1.38-1.31-.87-1.96-1.99-.64-1.13-.64-2.35 0-1.66 1-2.77 1-1.12 2.75-1.78-.95-.49-1.5-1.29-.55-.81-.55-2.12 0-.53.19-1.09.2-.56.58-1.12.38-.55.95-1.04.58-.5 1.36-.89-1.79-.96-2.82-2.57-1.02-1.61-1.02-3.78 0-1.74.7-3.16.7-1.41 1.96-2.41 1.25-1 2.96-1.53 1.72-.53 3.74-.53 1.52 0 2.85.31 1.34.31 2.44.91"/></svg>