<svg xmlns="http://www.w3.org/2000/svg" width="150" height="150" viewBox="0 0 150 150"><rect width="100%" height="100%" fill="#01161e"/><path fill="#FFFFFF" d="M46.1 62.73h5.93v24.62h-3.62q-1.18 0-1.49-1.08l-.41-1.97q-1.51 1.54-3.33 2.49-1.83.94-4.3.94-2.02 0-3.56-.68-1.55-.68-2.61-1.93-1.05-1.25-1.59-2.97-.54-1.71-.54-3.78V62.73h5.92v15.64q0 2.26 1.05 3.5 1.04 1.23 3.13 1.23 1.54 0 2.88-.68 1.34-.69 2.54-1.89zm28.16 2.66-1.35 2.14q-.24.38-.5.54-.27.15-.67.15-.44 0-.93-.24t-1.14-.54-1.47-.54q-.83-.24-1.96-.24-1.75 0-2.75.75-.99.74-.99 1.94 0 .79.51 1.33.52.54 1.37.95t1.93.73q1.08.33 2.2.71 1.11.38 2.19.88 1.08.49 1.94 1.24.85.76 1.36 1.82.52 1.05.52 2.54 0 1.78-.64 3.28-.63 1.5-1.88 2.59t-3.08 1.7q-1.84.61-4.24.61-1.27 0-2.48-.22-1.22-.23-2.33-.64-1.12-.41-2.07-.96-.94-.55-1.66-1.2l1.36-2.26q.27-.4.63-.62t.91-.22 1.04.32q.5.31 1.14.67.65.36 1.53.67.87.31 2.22.31 1.05 0 1.81-.25t1.25-.66.72-.95.23-1.11q0-.87-.52-1.42t-1.37-.96-1.94-.73q-1.09-.33-2.23-.71t-2.24-.9q-1.09-.52-1.94-1.31t-1.37-1.94q-.51-1.15-.51-2.79 0-1.51.6-2.88.6-1.36 1.76-2.38t2.9-1.64q1.74-.61 4.02-.61 2.55 0 4.64.84 2.08.84 3.48 2.21m9.4 6.82h11.19q0-1.16-.33-2.18-.32-1.02-.97-1.78-.65-.77-1.64-1.22-1-.44-2.32-.44-2.57 0-4.04 1.46-1.48 1.47-1.89 4.16m15.12 3.57H83.54q.15 1.9.68 3.28.52 1.38 1.39 2.28.86.9 2.05 1.34 1.19.45 2.63.45t2.48-.34q1.05-.34 1.83-.74.78-.41 1.36-.75.59-.33 1.14-.33.75 0 1.11.55l1.7 2.16q-.98 1.15-2.21 1.93-1.22.78-2.55 1.25t-2.71.66-2.68.19q-2.57 0-4.78-.85-2.2-.85-3.84-2.52-1.63-1.67-2.56-4.13-.94-2.46-.94-5.7 0-2.52.82-4.74.81-2.22 2.34-3.86 1.52-1.65 3.72-2.61 2.19-.96 4.95-.96 2.33 0 4.3.75 1.97.74 3.38 2.17 1.42 1.43 2.22 3.5.81 2.08.81 4.74 0 1.35-.29 1.81-.29.47-1.11.47m11.07-11.57.36 2.79q1.15-2.21 2.73-3.47 1.59-1.26 3.75-1.26 1.7 0 2.73.74l-.38 4.44q-.12.44-.35.62t-.61.18q-.36 0-1.07-.12t-1.38-.12q-.98 0-1.75.28-.77.29-1.38.83t-1.08 1.31-.88 1.75v15.17h-5.92V62.73h3.48q.91 0 1.27.32t.48 1.16"/></svg>